<?xml version="1.0" encoding="UTF-8" standalone="no"?>
<!-- Created with Inkscape (http://www.inkscape.org/) -->

<svg
   xmlns:dc="http://purl.org/dc/elements/1.1/"
   xmlns:cc="http://creativecommons.org/ns#"
   xmlns:rdf="http://www.w3.org/1999/02/22-rdf-syntax-ns#"
   xmlns:svg="http://www.w3.org/2000/svg"
   xmlns="http://www.w3.org/2000/svg"
   xmlns:sodipodi="http://sodipodi.sourceforge.net/DTD/sodipodi-0.dtd"
   xmlns:inkscape="http://www.inkscape.org/namespaces/inkscape"
   width="512mm"
   height="512mm"
   viewBox="0 0 1814.1732 1814.1732"
   id="svg4942"
   version="1.1"
   inkscape:version="0.91 r13725"
   sodipodi:docname="orange-juice.svg">
  <defs
     id="defs4944" />
  <sodipodi:namedview
     id="base"
     pagecolor="#ffffff"
     bordercolor="#666666"
     borderopacity="1.0"
     inkscape:pageopacity="0.0"
     inkscape:pageshadow="2"
     inkscape:zoom="0.35"
     inkscape:cx="1099.481"
     inkscape:cy="791.92351"
     inkscape:document-units="px"
     inkscape:current-layer="layer1"
     showgrid="false"
     inkscape:window-width="1855"
     inkscape:window-height="1056"
     inkscape:window-x="65"
     inkscape:window-y="24"
     inkscape:window-maximized="1" />
  <metadata
     id="metadata4947">
    <rdf:RDF>
      <cc:Work
         rdf:about="">
        <dc:format>image/svg+xml</dc:format>
        <dc:type
           rdf:resource="http://purl.org/dc/dcmitype/StillImage" />
        <dc:title></dc:title>
      </cc:Work>
    </rdf:RDF>
  </metadata>
  <g
     inkscape:label="Capa 1"
     inkscape:groupmode="layer"
     id="layer1"
     transform="translate(0,761.81102)">
    <g
       transform="matrix(32.833611,0,0,-32.833611,-4027.715,5103.7515)"
       id="g4853">
      <path
         inkscape:connector-curvature="0"
         id="path278"
         style="fill:#ff884f;fill-opacity:1;fill-rule:nonzero;stroke:none"
         d="m 134.262,167.33 10.467,0 0,3.106 -10.467,0 0,-3.106 z" />
      <g
         transform="translate(153.5454,162.7319)"
         id="g280">
        <path
           inkscape:connector-curvature="0"
           id="path282"
           style="fill:#ffd481;fill-opacity:1;fill-rule:nonzero;stroke:none"
           d="m 0,0 c -0.739,0.739 -1.744,1.116 -2.974,1.116 l -3.711,0 c -2.64,0 -3.087,2.104 -3.167,2.905 l -8.5,0 c -0.181,-2.777 -2.842,-2.903 -3.153,-2.905 l -3.7,0 c -1.465,0 -4.228,-0.884 -4.228,-4.229 l 0,-25.929 c 0,-1.468 0.89,-4.23 4.228,-4.23 l 22.231,0 c 1.456,0 4.219,0.885 4.219,4.23 l 0,25.929 C 1.245,-3.036 1.234,-1.234 0,0" />
      </g>
      <path
         inkscape:connector-curvature="0"
         id="path284"
         style="fill:#ff884f;fill-opacity:1;fill-rule:nonzero;stroke:none"
         d="m 163.864,166.811 7.456,0 0,3.107 -7.456,0 0,-3.107 z" />
      <g
         transform="translate(175.4321,163.4277)"
         id="g286">
        <path
           inkscape:connector-curvature="0"
           id="path288"
           style="fill:#ffd481;fill-opacity:1;fill-rule:nonzero;stroke:none"
           d="m 0,0 c -0.559,0.552 -1.304,0.832 -2.223,0.832 -1.793,0 -2.236,1.285 -2.349,1.977 l -6.407,0 C -11.23,0.93 -13.096,0.834 -13.32,0.832 c -1.1,0 -3.164,-0.659 -3.164,-3.161 l 0,-28.211 c 0,-1.098 0.666,-3.164 3.164,-3.164 l 11.097,0 c 1.089,0 3.154,0.66 3.154,3.164 l 0,28.211 C 0.931,-2.273 0.918,-0.925 0,0" />
      </g>
    </g>
  </g>
</svg>
