<?xml version="1.0" encoding="iso-8859-1"?>
<!-- Generator: Adobe Illustrator 20.0.0, SVG Export Plug-In . SVG Version: 6.00 Build 0)  -->
<svg version="1.1" id="Layer_1_1_" xmlns="http://www.w3.org/2000/svg" xmlns:xlink="http://www.w3.org/1999/xlink" x="0px" y="0px"
	 viewBox="0 0 64 64" style="enable-background:new 0 0 64 64;" xml:space="preserve">
<g id="Guide">
	<g>
	</g>
	<g>
	</g>
	<g>
	</g>
	<g>
	</g>
	<g>
	</g>
	<g>
	</g>
	<g>
	</g>
	<g>
	</g>
	<g>
	</g>
	<g>
	</g>
	<g>
	</g>
	<g>
	</g>
	<g>
	</g>
	<g>
	</g>
	<g>
	</g>
	<g>
	</g>
	<g>
	</g>
	<g>
	</g>
	<g>
	</g>
	<g>
	</g>
	<g>
	</g>
	<g>
	</g>
	<g>
	</g>
	<g>
	</g>
	<g>
	</g>
	<g>
	</g>
	<g>
	</g>
	<g>
	</g>
	<g>
	</g>
	<g>
	</g>
	<g>
	</g>
	<g>
	</g>
	<g>
	</g>
	<g>
	</g>
	<g>
	</g>
	<g>
	</g>
</g>
<path d="M32,0C14.355,0,0,14.355,0,32s14.355,32,32,32s32-14.355,32-32S49.645,0,32,0z M32,62C15.458,62,2,48.542,2,32
	S15.458,2,32,2s30,13.458,30,30S48.542,62,32,62z"/>
<path d="M32,6c-5.678,0-11.072,1.798-15.601,5.201c-0.232,0.174-0.376,0.44-0.397,0.729s0.085,0.573,0.291,0.777l17,17l8,8l10,10
	C51.481,47.896,51.736,48,52,48c0.023,0,0.047-0.001,0.07-0.002c0.289-0.021,0.555-0.165,0.729-0.397C56.202,43.072,58,37.678,58,32
	C58,17.664,46.336,6,32,6z M36.414,30H45v6h-2.586L36.414,30z M51.873,45.459L44.414,38H46c0.552,0,1-0.448,1-1v-8
	c0-0.552-0.448-1-1-1H34.414L18.541,12.127C22.518,9.423,27.147,8,32,8c13.233,0,24,10.767,24,24
	C56,36.853,54.577,41.482,51.873,45.459z"/>
<path d="M32.707,36.293l-8-8l-12-12c-0.205-0.205-0.495-0.308-0.777-0.291c-0.289,0.021-0.555,0.165-0.729,0.397
	C7.798,20.928,6,26.322,6,32c0,14.336,11.664,26,26,26c5.678,0,11.072-1.798,15.601-5.201c0.232-0.174,0.376-0.44,0.397-0.729
	s-0.085-0.573-0.291-0.777L32.707,36.293z M29.586,36H24v-5.586L29.586,36z M22,36h-8v-6h8V36z M32,56C18.767,56,8,45.233,8,32
	c0-4.853,1.423-9.482,4.127-13.459L21.586,28H13c-0.552,0-1,0.448-1,1v8c0,0.552,0.448,1,1,1h18.586l13.873,13.873
	C41.482,54.577,36.853,56,32,56z"/>
<rect x="49" y="28" width="2" height="10"/>
<path d="M45,20c-1.103,0-2-0.897-2-2v-1c0-2.206-1.794-4-4-4h-7v2h7c1.103,0,2,0.897,2,2v1c0,2.206,1.794,4,4,4h2
	c1.103,0,2,0.897,2,2v2h2v-2c0-2.206-1.794-4-4-4H45z"/>
<path d="M39,22c0-2.206-1.794-4-4-4h-5v2h5c1.103,0,2,0.897,2,2c0,2.206,1.794,4,4,4h6v-2h-6C39.897,24,39,23.103,39,22z"/>
<rect x="28" y="13" width="2" height="2"/>
<rect x="24" y="13" width="2" height="2"/>
</svg>
