<?xml version="1.0" encoding="UTF-8" standalone="no"?>
<svg
   viewBox="0 0 32 32"
   version="1.1"
   id="svg10809"
   sodipodi:docname="TwoHours.svg"
   inkscape:version="1.1 (c68e22c387, 2021-05-23)"
   xmlns:inkscape="http://www.inkscape.org/namespaces/inkscape"
   xmlns:sodipodi="http://sodipodi.sourceforge.net/DTD/sodipodi-0.dtd"
   xmlns="http://www.w3.org/2000/svg"
   xmlns:svg="http://www.w3.org/2000/svg">
  <sodipodi:namedview
     id="namedview10811"
     pagecolor="#ffffff"
     bordercolor="#666666"
     borderopacity="1.0"
     inkscape:pageshadow="2"
     inkscape:pageopacity="0.0"
     inkscape:pagecheckerboard="0"
     showgrid="false"
     inkscape:zoom="3.25"
     inkscape:cx="-52.923077"
     inkscape:cy="60.153846"
     inkscape:window-width="1920"
     inkscape:window-height="1017"
     inkscape:window-x="-8"
     inkscape:window-y="-8"
     inkscape:window-maximized="1"
     inkscape:current-layer="svg10809"
     showguides="false" />
  <defs
     id="defs10797">
    <style
       id="style10795">.cls-1{fill:none;}</style>
  </defs>
  <title
     id="title10799" />
  <g
     data-name="Layer 2"
     id="Layer_2"
     style="fill:#32cd32;fill-opacity:1">
    <path
       d="M16,29A13,13,0,1,1,29,16,13,13,0,0,1,16,29ZM16,5A11,11,0,1,0,27,16,11,11,0,0,0,16,5Z"
       id="path10801"
       style="fill:#32cd32;fill-opacity:1" />
    <path
       d="M21.5,22.5a1,1,0,0,1-.71-.29l-5.5-5.5A1,1,0,0,1,15,16V8a1,1,0,0,1,2,0v7.59l5.21,5.2a1,1,0,0,1,0,1.42A1,1,0,0,1,21.5,22.5Z"
       id="path10803"
       style="fill:#32cd32;fill-opacity:1" />
  </g>
  <g
     id="frame">
    <rect
       class="cls-1"
       height="32"
       width="32"
       id="rect10806" />
  </g>
</svg>
